<?xml version="1.0" ?><svg height="300" id="svg2" version="1.1" viewBox="0 0 281.25 281.25" width="300" xml:space="preserve" xmlns="http://www.w3.org/2000/svg" xmlns:cc="http://creativecommons.org/ns#" xmlns:dc="http://purl.org/dc/elements/1.1/" xmlns:rdf="http://www.w3.org/1999/02/22-rdf-syntax-ns#" xmlns:svg="http://www.w3.org/2000/svg"><defs id="defs4"/><g id="layer1" transform="translate(6402.3564,-4565.9518)"><g id="g24846"><path d="m -6250.4429,4611.0862 a 4.6875,4.6875 0 0 0 -1.4521,0.1575 4.6875,4.6875 0 0 0 -0.3424,0.1172 4.6875,4.6875 0 0 0 -0.5841,0.1977 c -8.2069,4.0504 -15.1272,10.5101 -19.7333,18.4186 -3.4238,5.8786 -5.4919,12.4676 -6.1285,19.2004 -2.4339,-2.4771 -5.0062,-4.8186 -7.7142,-6.9983 a 4.6875,4.6875 0 0 0 -0.846,-0.5163 4.6875,4.6875 0 0 0 -0.1465,-0.088 4.6875,4.6875 0 0 0 -1.5674,-0.3845 4.6875,4.6875 0 0 0 -0.3881,-0.01 4.6875,4.6875 0 0 0 -0.4963,-0.011 4.6875,4.6875 0 0 0 -0.9503,0.2307 4.6875,4.6875 0 0 0 -0.1428,0.022 4.6875,4.6875 0 0 0 -0.037,0.022 4.6875,4.6875 0 0 0 -1.3751,0.8331 4.6875,4.6875 0 0 0 -0.2875,0.2765 4.6875,4.6875 0 0 0 -0.3552,0.3388 4.6875,4.6875 0 0 0 -0.3772,0.6573 4.6875,4.6875 0 0 0 -0.2509,0.4358 4.6875,4.6875 0 0 0 -0.401,1.6278 4.6875,4.6875 0 0 0 0.01,0.053 4.6875,4.6875 0 0 0 0.2454,1.6003 4.6875,4.6875 0 0 0 0.024,0.1593 c 2.3226,6.4051 2.7274,13.5681 1.1444,20.1947 -0.057,0.2377 -0.1283,0.4735 -0.1904,0.7105 -1.5339,-1.4595 -3.2353,-2.7469 -5.0757,-3.8214 -4.6336,-2.7052 -9.9787,-3.9746 -15.2875,-3.7024 -1.7696,0.091 -3.5356,0.3538 -5.2698,0.791 a 4.6875,4.6875 0 0 0 -0.066,0.024 4.6875,4.6875 0 0 0 -0.3149,0.119 4.6875,4.6875 0 0 0 -0.7343,0.315 4.6875,4.6875 0 0 0 -0.3699,0.2435 4.6875,4.6875 0 0 0 -0.5529,0.4358 4.6875,4.6875 0 0 0 -0.1703,0.1337 4.6875,4.6875 0 0 0 -0.152,0.2032 4.6875,4.6875 0 0 0 -0.4157,0.5566 4.6875,4.6875 0 0 0 -0.2307,0.3882 4.6875,4.6875 0 0 0 -0.2746,0.6848 4.6875,4.6875 0 0 0 -0.1264,0.3882 4.6875,4.6875 0 0 0 -0.108,0.9101 4.6875,4.6875 0 0 0 -0.02,0.227 4.6875,4.6875 0 0 0 0.1374,1.0602 4.6875,4.6875 0 0 0 0.024,0.064 4.6875,4.6875 0 0 0 0.1245,0.3296 4.6875,4.6875 0 0 0 0.3076,0.7196 4.6875,4.6875 0 0 0 0.2527,0.3827 4.6875,4.6875 0 0 0 0.4303,0.5475 4.6875,4.6875 0 0 0 0.1337,0.1684 c 4.0088,3.9092 7.3115,8.5645 9.6771,13.6395 2.2959,4.9257 3.7209,10.2741 4.1839,15.6903 -1.6483,4.3777 -2.8587,9.098 -3.0157,14.0717 -0.1704,5.4011 0.9335,11.0379 3.9093,15.9521 2.3787,3.928 5.4776,6.7421 8.0621,9.3018 3.2962,3.2648 6.6359,6.8647 10.589,10.1697 3.9647,3.3147 8.5886,6.3392 14.0314,7.923 4.7503,1.3823 9.8049,1.542 14.6338,0.465 4.3862,-0.9783 8.4965,-2.9695 11.9971,-5.7751 7.5689,-1.4152 14.904,-4.0164 21.6595,-7.7142 6.9892,-3.8258 13.9989,-9.2331 17.7136,-17.309 3.497,-7.6029 3.324,-16.1079 1.1774,-23.6389 -0.013,-0.047 -0.03,-0.091 -0.044,-0.1373 a 4.6875,4.6875 0 0 0 -0.01,-0.035 c -4.7417,-14.4747 -7.8745,-29.4801 -9.3201,-44.643 -0.6675,-6.9999 -0.9756,-14.035 -0.9247,-21.0663 a 4.6875,4.6875 0 0 0 -0.01,-0.1281 4.6875,4.6875 0 0 0 -0.016,-0.3205 4.6875,4.6875 0 0 0 -0.022,-0.1904 4.6875,4.6875 0 0 0 -0.046,-0.2856 4.6875,4.6875 0 0 0 -0.038,-0.1868 4.6875,4.6875 0 0 0 -0.1044,-0.3644 4.6875,4.6875 0 0 0 -0.028,-0.095 4.6875,4.6875 0 0 0 -0.1703,-0.4175 4.6875,4.6875 0 0 0 -0.084,-0.1666 4.6875,4.6875 0 0 0 -0.081,-0.1611 4.6875,4.6875 0 0 0 -0.026,-0.033 4.6875,4.6875 0 0 0 -0.6848,-0.9265 4.6875,4.6875 0 0 0 -0.029,-0.031 4.6875,4.6875 0 0 0 -0.9174,-0.7251 4.6875,4.6875 0 0 0 -0.084,-0.049 4.6875,4.6875 0 0 0 -1.0181,-0.4376 4.6875,4.6875 0 0 0 -0.053,-0.024 4.6875,4.6875 0 0 0 -0.049,-0.01 4.6875,4.6875 0 0 0 -1.1133,-0.1648 4.6875,4.6875 0 0 0 -0.071,-0.01 4.6875,4.6875 0 0 0 -0.013,0 4.6875,4.6875 0 0 0 -0.07,0.011 4.6875,4.6875 0 0 0 -1.2634,0.1886 4.6875,4.6875 0 0 0 -0.3973,0.1593 4.6875,4.6875 0 0 0 -0.586,0.2325 c -6.2987,3.5113 -11.2515,9.1565 -13.9123,15.8588 -0.5025,1.2656 -0.9173,2.561 -1.2488,3.8745 -1.3389,-2.3013 -2.5486,-4.6466 -3.5779,-7.0606 -3.819,-8.957 -5.2717,-18.9648 -4.1547,-28.6377 a 4.6875,4.6875 0 0 0 0,-0.068 4.6875,4.6875 0 0 0 -0.053,-1.3147 4.6875,4.6875 0 0 0 -0.033,-0.1648 4.6875,4.6875 0 0 0 -0.1776,-0.6262 4.6875,4.6875 0 0 0 -0.015,-0.033 4.6875,4.6875 0 0 0 -0.1757,-0.4065 4.6875,4.6875 0 0 0 -0.044,-0.066 4.6875,4.6875 0 0 0 -0.5951,-0.8899 4.6875,4.6875 0 0 0 -0.13,-0.1391 4.6875,4.6875 0 0 0 -1.8255,-1.2195 4.6875,4.6875 0 0 0 -0.1026,-0.05 4.6875,4.6875 0 0 0 -0.077,-0.015 4.6875,4.6875 0 0 0 -0.8899,-0.2033 4.6875,4.6875 0 0 0 -0.093,0.01 4.6875,4.6875 0 0 0 -0.1409,-0.028 z m -5.3449,13.4839 c 0.2307,8.2472 1.9854,16.4412 5.2277,24.0454 6.5575,15.3796 18.0998,26.9559 26.7608,39.2212 3.3734,4.7772 6.3184,9.6754 8.1317,14.7638 0.2397,0.7618 0.4825,1.5223 0.7306,2.2815 1.6536,5.827 1.6185,12.1012 -0.6884,17.1167 -2.4721,5.3746 -7.6987,9.7175 -13.6963,13.0005 -6.2106,3.3996 -13.0081,5.7571 -19.9897,6.9342 a 4.6875,4.6875 0 0 0 -0.3643,0.1391 4.6875,4.6875 0 0 0 -0.8313,0.315 4.6875,4.6875 0 0 0 -0.7947,0.4614 4.6875,4.6875 0 0 0 -0.3278,0.1904 c -2.51,2.2105 -5.6253,3.7965 -8.8897,4.5246 -3.2644,0.728 -6.7623,0.6159 -9.9738,-0.3186 -3.7066,-1.0786 -7.2909,-3.3148 -10.6366,-6.1121 -3.3574,-2.8069 -6.5309,-6.1978 -10.0049,-9.6387 -2.7169,-2.691 -5.1531,-5.0417 -6.6394,-7.4963 -1.8424,-3.0424 -2.6809,-6.9034 -2.558,-10.7996 0.1239,-3.9266 1.1745,-7.9758 2.7539,-11.9549 3.8418,-9.6791 11.1691,-19.185 14.0973,-31.4429 0.8413,-3.5218 1.2184,-7.1333 1.1866,-10.7391 4.4252,5.0398 8.2309,10.627 11.2701,16.5966 5.164,10.1435 8.1365,21.4242 8.6645,32.7961 -1.9101,3.0453 -3.6046,6.5694 -4.1601,10.6604 -0.5069,3.733 0.029,7.5411 1.5454,10.99 1.5161,3.4489 3.9581,6.419 7.0514,8.5693 a 4.6875,4.6875 0 0 0 6.5259,-1.1737 4.6875,4.6875 0 0 0 -1.1737,-6.5241 c -1.6501,-1.1471 -3.0127,-2.804 -3.8214,-4.6435 -0.8086,-1.8395 -1.109,-3.9652 -0.8387,-5.9564 0.3457,-2.5459 1.6736,-5.278 3.5083,-8.0072 3.2158,-4.7832 7.9968,-9.547 11.2189,-16.1957 0.5996,-1.2373 1.115,-2.5105 1.5564,-3.8086 1.5499,2.5233 2.8169,5.2205 3.7445,8.0218 3.0367,9.1716 2.4118,19.6525 -1.6901,28.3997 a 4.6875,4.6875 0 0 0 2.2541,6.2347 4.6875,4.6875 0 0 0 6.2347,-2.254 c 5.1533,-10.9896 5.9136,-23.8058 2.0984,-35.3284 -2.4421,-7.3753 -6.6864,-14.0993 -12.2937,-19.4769 a 4.6875,4.6875 0 0 0 -0.3113,-0.2289 4.6875,4.6875 0 0 0 -0.4284,-0.3149 4.6875,4.6875 0 0 0 -0.7947,-0.3955 4.6875,4.6875 0 0 0 -0.4322,-0.1685 4.6875,4.6875 0 0 0 -1.1114,-0.1666 4.6875,4.6875 0 0 0 -0.2051,-0.031 4.6875,4.6875 0 0 0 -0.029,0.01 4.6875,4.6875 0 0 0 -0.029,0 4.6875,4.6875 0 0 0 -1.3037,0.2252 4.6875,4.6875 0 0 0 -0.3753,0.1666 4.6875,4.6875 0 0 0 -0.835,0.4322 4.6875,4.6875 0 0 0 -0.4047,0.3241 4.6875,4.6875 0 0 0 -0.3662,0.2929 4.6875,4.6875 0 0 0 -0.1868,0.2692 4.6875,4.6875 0 0 0 -0.4321,0.6207 4.6875,4.6875 0 0 0 -0.3131,0.6317 4.6875,4.6875 0 0 0 -0.2161,0.7105 4.6875,4.6875 0 0 0 -0.1062,0.7104 4.6875,4.6875 0 0 0 -0.051,0.3406 c 0.03,3.6764 -0.8063,7.394 -2.4097,10.7025 -0.84,1.7332 -1.9517,3.4267 -3.2043,5.1545 -1.5163,-8.9745 -4.3914,-17.7141 -8.5254,-25.8344 -1.8125,-3.5601 -3.8638,-6.9944 -6.1322,-10.2777 a 4.6875,4.6875 0 0 0 -0.068,-0.553 c -1.673,-8.7374 -0.059,-18.1909 4.4184,-25.8783 2.2397,-3.8456 5.2063,-7.2908 8.6645,-10.1257 z m 30.3571,21.8133 c 0.1578,3.995 0.417,7.986 0.7965,11.966 0.4931,5.1723 1.1763,10.3261 2.0416,15.4486 -2.2537,-2.9047 -4.4948,-5.7582 -6.6687,-8.5986 -1.1301,-4.4553 -0.8279,-9.3515 0.8643,-13.6139 0.7342,-1.8495 1.7447,-3.6036 2.9663,-5.2021 z m -81.8262,24.3457 c 1.6435,0.4098 3.2262,1.0384 4.6655,1.8787 2.3531,1.3739 4.4104,3.3268 5.9345,5.6049 -1.0663,2.1777 -2.2405,4.4261 -3.4314,6.6797 -0.6563,-1.9432 -1.4176,-3.8516 -2.2852,-5.7129 -1.3775,-2.9552 -3.0153,-5.7835 -4.8834,-8.4504 z" id="path16726" style="color:#000000;fill:#dcac3e;fill-opacity:1;fill-rule:evenodd;stroke-linecap:round;stroke-linejoin:round"/><path d="m -6315.6102,4719.752 a 4.6875,4.6875 0 0 0 -0.4779,0.07 4.6875,4.6875 0 0 0 -0.4211,0.064 4.6875,4.6875 0 0 0 -0.5182,0.1813 4.6875,4.6875 0 0 0 -0.3424,0.1209 c -0.01,0 -0.012,0.01 -0.018,0.01 a 4.6875,4.6875 0 0 0 -0.013,0.01 c -3.7739,1.7753 -6.9052,4.6951 -8.9392,8.3368 -3.2368,5.7952 -3.374,12.8866 -0.3643,18.8031 a 4.6875,4.6875 0 0 0 0.6591,0.9558 4.6875,4.6875 0 0 0 0.1429,0.1373 4.6875,4.6875 0 0 0 1.2652,0.9467 4.6875,4.6875 0 0 0 0.088,0.066 l 16.3934,7.8351 c -0.9159,-0.2144 -1.8556,-0.3543 -2.8125,-0.412 -3.7222,-0.2245 -7.4711,0.8099 -10.5413,3.1146 -3.2263,2.4218 -5.1767,5.8205 -6.2201,9.2487 -1.0304,3.3855 -1.187,6.7262 -1.0968,9.7925 0.1066,3.6153 0.5791,7.5045 2.1405,11.2994 1.5816,3.8446 4.2898,7.4919 8.3386,9.7156 4.438,2.4375 9.7418,2.7015 14.3994,0.7159 a 4.6875,4.6875 0 0 0 0.1978,-0.095 4.6875,4.6875 0 0 0 0.022,-0.01 l 42.6947,-20.8484 42.8852,20.4987 a 4.6875,4.6875 0 0 0 0.042,0.018 l 0.033,0.016 a 4.6875,4.6875 0 0 0 0.053,0.013 4.6875,4.6875 0 0 0 1.0492,0.357 c 4.2773,0.8533 8.7199,0.076 12.4512,-2.1826 3.7845,-2.2909 6.3971,-5.8077 7.934,-9.5892 1.5223,-3.7452 1.9766,-7.6452 1.8988,-11.3306 -0.075,-3.5377 -0.6489,-7.326 -2.3749,-10.9204 -1.7089,-3.5586 -4.5319,-6.7899 -8.4906,-8.5693 a 4.6875,4.6875 0 0 0 -0.1795,-0.081 c -0.04,-0.017 -0.079,-0.038 -0.119,-0.055 -0.019,-0.01 -0.038,-0.014 -0.057,-0.022 a 4.6875,4.6875 0 0 0 -0.09,-0.04 l -0.1922,-0.075 c -0.1322,-0.052 -0.2643,-0.1033 -0.3974,-0.1519 l -2.4279,-0.9357 9.9371,-5.4163 a 4.6875,4.6875 0 0 0 0.4156,-0.26 4.6875,4.6875 0 0 0 0.048,-0.031 4.6875,4.6875 0 0 0 0.7415,-0.6555 4.6875,4.6875 0 0 0 0.042,-0.046 4.6875,4.6875 0 0 0 0.5842,-0.8093 4.6875,4.6875 0 0 0 0.011,-0.016 c 0.015,-0.027 0.029,-0.055 0.044,-0.082 a 4.6875,4.6875 0 0 0 0.062,-0.119 c 2.9887,-5.4556 3.3566,-12.0263 0.9778,-17.7814 -1.8337,-4.4358 -5.1706,-8.0468 -9.3237,-10.2795 -0.4191,1.5753 -0.9331,3.1362 -1.6315,4.6545 -0.6486,1.4102 -1.4294,2.711 -2.2613,3.9642 2.0019,1.2605 3.6788,3.1302 4.552,5.2423 1.1054,2.6744 1.0629,5.9848 -0.055,8.6994 l -15.6207,8.5144 -13.1177,-5.0537 c -4.1677,1.6029 -8.4776,2.8352 -12.8704,3.6566 -0.4094,0.3281 -0.8288,0.643 -1.2543,0.9485 l 24.1974,9.3219 c -0.2128,0.1875 -0.426,0.3748 -0.6299,0.5713 -2.4707,2.381 -4.2588,5.3848 -5.1727,8.692 -0.9145,3.3071 -0.9249,6.8018 -0.028,10.1129 a 4.6875,4.6875 0 0 0 5.7513,3.2996 4.6875,4.6875 0 0 0 3.2978,-5.7495 c -0.4505,-1.6632 -0.445,-3.5033 0.015,-5.1636 0.459,-1.6608 1.3998,-3.2429 2.6404,-4.4385 1.1472,-1.1056 2.581,-1.9012 4.0045,-2.2302 1.4054,-0.3247 2.9362,-0.2051 4.1437,0.3076 1.5665,0.6651 3.0816,2.2182 4.0027,4.1363 0.947,1.9721 1.3959,4.4247 1.452,7.0606 0.058,2.7534 -0.3076,5.3797 -1.2103,7.6007 -0.8879,2.1847 -2.3805,4.0536 -4.1053,5.0977 -1.5206,0.9205 -3.4784,1.3142 -5.2606,1.0858 l -104.2584,-49.8322 c -0.9162,-2.7884 -0.6617,-6.1355 0.7416,-8.6481 0.8542,-1.5292 2.1481,-2.867 3.6474,-3.814 l 9.9921,1.4648 c -0.4418,-0.6098 -0.8739,-1.2375 -1.2799,-1.908 -1.5672,-2.5881 -2.6029,-5.3779 -3.219,-8.2269 l -5.6891,-0.8331 a 4.6875,4.6875 0 0 0 -0.5145,-0.024 4.6875,4.6875 0 0 0 -0.3937,-0.018 z m 65.7404,22.3938 a 4.6875,4.6875 0 0 0 -1.1353,0.531 4.6875,4.6875 0 0 1 0.4981,-0.2893 4.6875,4.6875 0 0 1 0.6372,-0.2417 z m -51.6596,18.305 29.6979,14.1944 -35.8466,17.5067 c -1.8858,0.782 -4.37,0.6531 -6.156,-0.3278 -1.7204,-0.9449 -3.2596,-2.8223 -4.1821,-5.0647 -0.9431,-2.2921 -1.3518,-5.0433 -1.4392,-8.0072 -0.074,-2.5149 0.099,-4.8315 0.694,-6.7877 0.5824,-1.9135 1.641,-3.5522 2.8802,-4.4824 1.1532,-0.8657 2.7995,-1.3477 4.3488,-1.2543 1.5692,0.095 3.2386,0.7667 4.5392,1.8366 1.3187,1.0845 2.3439,2.6377 2.8271,4.2755 0.4831,1.6382 0.4642,3.4982 -0.055,5.1251 a 4.6875,4.6875 0 0 0 3.0414,5.8905 4.6875,4.6875 0 0 0 5.8905,-3.0432 c 1.1003,-3.4506 1.1397,-7.152 0.1153,-10.6256 -1.0248,-3.4737 -3.0676,-6.5614 -5.8649,-8.8623 -0.1588,-0.1307 -0.3276,-0.2485 -0.4907,-0.3736 z" id="path16694" style="color:#000000;fill:#3d3d3d;fill-opacity:1;fill-rule:evenodd;stroke-linecap:round;stroke-linejoin:round;-inkscape-stroke:none"/></g></g></svg>